<mxfile host="app.diagrams.net" agent="Mozilla/5.0 (X11; Linux x86_64; rv:130.0) Gecko/20100101 Firefox/130.0" version="24.7.16">
  <diagram name="Page-1" id="HNp2VXpqPnTNMz63PoMm">
    <mxGraphModel dx="1434" dy="1888" grid="1" gridSize="10" guides="1" tooltips="1" connect="1" arrows="1" fold="1" page="1" pageScale="1" pageWidth="850" pageHeight="1100" math="0" shadow="0">
      <root>
        <mxCell id="0" />
        <mxCell id="1" parent="0" />
        <mxCell id="n_kdhxU8VcF-HbsjSbfM-1" value="" style="html=1;overflow=block;blockSpacing=1;whiteSpace=wrap;fontSize=13;spacing=3.8;rounded=1;absoluteArcSize=1;arcSize=9;strokeWidth=NaN;lucidId=oa0c9_Mlfg03;" parent="1" vertex="1">
          <mxGeometry x="135" y="450" width="113" height="210" as="geometry" />
        </mxCell>
        <mxCell id="n_kdhxU8VcF-HbsjSbfM-2" value="" style="html=1;overflow=block;blockSpacing=1;whiteSpace=wrap;shape=image;fontSize=13;spacing=0;strokeOpacity=100;rounded=1;absoluteArcSize=1;arcSize=9;strokeWidth=0;image=https://images.lucid.app/images/6ee2b878-bf0c-4cc6-b874-f6952ba9679c/content;imageAspect=0;lucidId=3~ZcfYs1wXwu;" parent="1" vertex="1">
          <mxGeometry x="160" y="465" width="60" height="60" as="geometry" />
        </mxCell>
        <mxCell id="n_kdhxU8VcF-HbsjSbfM-3" value="" style="html=1;overflow=block;blockSpacing=1;whiteSpace=wrap;shape=image;fontSize=13;spacing=0;strokeOpacity=100;rounded=1;absoluteArcSize=1;arcSize=9;strokeWidth=0;image=https://images.lucid.app/images/cd1e7f06-908c-4d9b-80ca-b69b78b18ff8/content;imageAspect=0;lucidId=nd0crdiI~nZ~;" parent="1" vertex="1">
          <mxGeometry x="147" y="547" width="85" height="85" as="geometry" />
        </mxCell>
        <mxCell id="n_kdhxU8VcF-HbsjSbfM-4" value="" style="html=1;overflow=block;blockSpacing=1;whiteSpace=wrap;fontSize=13;spacing=3.8;rounded=1;absoluteArcSize=1;arcSize=9;strokeWidth=NaN;lucidId=Ue0cFCNcHWdN;" parent="1" vertex="1">
          <mxGeometry x="285" y="450" width="113" height="210" as="geometry" />
        </mxCell>
        <mxCell id="n_kdhxU8VcF-HbsjSbfM-5" value="" style="html=1;overflow=block;blockSpacing=1;whiteSpace=wrap;shape=image;fontSize=13;spacing=0;strokeOpacity=100;rounded=1;absoluteArcSize=1;arcSize=9;strokeWidth=0;image=https://images.lucid.app/images/6ee2b878-bf0c-4cc6-b874-f6952ba9679c/content;imageAspect=0;lucidId=Ue0c8D6FLSGJ;" parent="1" vertex="1">
          <mxGeometry x="311" y="465" width="60" height="60" as="geometry" />
        </mxCell>
        <mxCell id="n_kdhxU8VcF-HbsjSbfM-6" value="" style="html=1;overflow=block;blockSpacing=1;whiteSpace=wrap;shape=image;fontSize=13;spacing=0;strokeOpacity=100;rounded=1;absoluteArcSize=1;arcSize=9;strokeWidth=0;image=https://images.lucid.app/images/cd1e7f06-908c-4d9b-80ca-b69b78b18ff8/content;imageAspect=0;lucidId=Ue0cAtFzDeq4;" parent="1" vertex="1">
          <mxGeometry x="297" y="547" width="85" height="85" as="geometry" />
        </mxCell>
        <mxCell id="n_kdhxU8VcF-HbsjSbfM-7" value="" style="html=1;overflow=block;blockSpacing=1;whiteSpace=wrap;fontSize=13;spacing=3.8;rounded=1;absoluteArcSize=1;arcSize=9;strokeWidth=NaN;lucidId=Ye0cGU86-.UA;" parent="1" vertex="1">
          <mxGeometry x="435" y="450" width="113" height="210" as="geometry" />
        </mxCell>
        <mxCell id="n_kdhxU8VcF-HbsjSbfM-8" value="" style="html=1;overflow=block;blockSpacing=1;whiteSpace=wrap;shape=image;fontSize=13;spacing=0;strokeOpacity=100;rounded=1;absoluteArcSize=1;arcSize=9;strokeWidth=0;image=https://images.lucid.app/images/6ee2b878-bf0c-4cc6-b874-f6952ba9679c/content;imageAspect=0;lucidId=Ye0co.i65bgH;" parent="1" vertex="1">
          <mxGeometry x="461" y="465" width="60" height="60" as="geometry" />
        </mxCell>
        <mxCell id="n_kdhxU8VcF-HbsjSbfM-9" value="" style="html=1;overflow=block;blockSpacing=1;whiteSpace=wrap;shape=image;fontSize=13;spacing=0;strokeOpacity=100;rounded=1;absoluteArcSize=1;arcSize=9;strokeWidth=0;image=https://images.lucid.app/images/cd1e7f06-908c-4d9b-80ca-b69b78b18ff8/content;imageAspect=0;lucidId=Ye0cFIR5wIGK;" parent="1" vertex="1">
          <mxGeometry x="447" y="547" width="85" height="85" as="geometry" />
        </mxCell>
        <mxCell id="p1MtR6n1nj-J7KXdIe0o-18" style="edgeStyle=orthogonalEdgeStyle;rounded=0;orthogonalLoop=1;jettySize=auto;html=1;entryX=0;entryY=0.5;entryDx=0;entryDy=0;exitX=0.584;exitY=0;exitDx=0;exitDy=0;exitPerimeter=0;" parent="1" source="n_kdhxU8VcF-HbsjSbfM-10" target="p1MtR6n1nj-J7KXdIe0o-5" edge="1">
          <mxGeometry relative="1" as="geometry">
            <mxPoint x="350" y="-200" as="sourcePoint" />
          </mxGeometry>
        </mxCell>
        <mxCell id="n_kdhxU8VcF-HbsjSbfM-10" value="" style="html=1;overflow=block;blockSpacing=1;whiteSpace=wrap;fontSize=13;spacing=3.8;rounded=1;absoluteArcSize=1;arcSize=9;strokeWidth=NaN;lucidId=qf0c_eEb6ykf;" parent="1" vertex="1">
          <mxGeometry x="224" y="-120" width="231" height="145" as="geometry" />
        </mxCell>
        <mxCell id="n_kdhxU8VcF-HbsjSbfM-11" value="" style="html=1;overflow=block;blockSpacing=1;whiteSpace=wrap;shape=image;fontSize=13;spacing=0;strokeOpacity=100;rounded=1;absoluteArcSize=1;arcSize=9;strokeWidth=0;image=https://images.lucid.app/images/6ee2b878-bf0c-4cc6-b874-f6952ba9679c/content;imageAspect=0;lucidId=qf0c7~HlXfNC;" parent="1" vertex="1">
          <mxGeometry x="365" y="-78" width="60" height="60" as="geometry" />
        </mxCell>
        <mxCell id="n_kdhxU8VcF-HbsjSbfM-12" value="" style="html=1;overflow=block;blockSpacing=1;whiteSpace=wrap;shape=image;fontSize=13;spacing=0;strokeOpacity=100;rounded=1;absoluteArcSize=1;arcSize=9;strokeWidth=0;image=https://images.lucid.app/images/438c2a9f-1425-4897-a726-318c64c24dc9/content;imageAspect=0;lucidId=bj0c9Xj_4SpL;" parent="1" vertex="1">
          <mxGeometry x="242" y="-101" width="106" height="106" as="geometry" />
        </mxCell>
        <mxCell id="n_kdhxU8VcF-HbsjSbfM-13" value="" style="html=1;jettySize=18;whiteSpace=wrap;fontSize=13;strokeOpacity=100;strokeWidth=0.8;rounded=1;arcSize=12;startArrow=classic;endArrow=classic;endFill=1;exitX=0.5;exitY=0;entryX=0.5;entryY=1.005;entryPerimeter=0;lucidId=Lj0c53ItbWVD;jumpStyle=none;startFill=1;exitDx=0;exitDy=0;" parent="1" source="n_kdhxU8VcF-HbsjSbfM-1" target="n_kdhxU8VcF-HbsjSbfM-10" edge="1">
          <mxGeometry width="100" height="100" relative="1" as="geometry" />
        </mxCell>
        <mxCell id="n_kdhxU8VcF-HbsjSbfM-14" value="" style="html=1;jettySize=18;whiteSpace=wrap;fontSize=13;strokeOpacity=100;strokeWidth=0.8;rounded=1;arcSize=12;startArrow=classic;endArrow=classic;endFill=1;exitX=0.5;exitY=-0.004;exitPerimeter=0;entryX=0.5;entryY=1.005;entryPerimeter=0;lucidId=Oj0cYNBlcdyR;jumpStyle=none;startFill=1;" parent="1" source="n_kdhxU8VcF-HbsjSbfM-4" target="n_kdhxU8VcF-HbsjSbfM-10" edge="1">
          <mxGeometry width="100" height="100" relative="1" as="geometry" />
        </mxCell>
        <mxCell id="n_kdhxU8VcF-HbsjSbfM-15" value="" style="html=1;jettySize=18;whiteSpace=wrap;fontSize=13;strokeOpacity=100;strokeWidth=0.8;rounded=1;arcSize=12;startArrow=classic;endArrow=classic;endFill=1;exitX=0.5;exitY=-0.004;exitPerimeter=0;entryX=0.5;entryY=1.005;entryPerimeter=0;lucidId=Xj0c3KFsN1RN;jumpStyle=none;startFill=1;" parent="1" source="n_kdhxU8VcF-HbsjSbfM-7" target="n_kdhxU8VcF-HbsjSbfM-10" edge="1">
          <mxGeometry width="100" height="100" relative="1" as="geometry" />
        </mxCell>
        <mxCell id="n_kdhxU8VcF-HbsjSbfM-16" value="Local Model" style="html=1;overflow=block;blockSpacing=1;whiteSpace=wrap;fontSize=10;spacing=0;strokeOpacity=100;fillOpacity=100;rounded=1;absoluteArcSize=1;arcSize=9;strokeWidth=1.5;lucidId=tk0cPmUiDAOT;fillColor=none;strokeColor=none;" parent="1" vertex="1">
          <mxGeometry x="152" y="525" width="80" height="30" as="geometry" />
        </mxCell>
        <mxCell id="n_kdhxU8VcF-HbsjSbfM-17" value="Local Model" style="html=1;overflow=block;blockSpacing=1;whiteSpace=wrap;fontSize=10;spacing=0;strokeOpacity=100;fillOpacity=100;rounded=1;absoluteArcSize=1;arcSize=9;strokeWidth=1.5;lucidId=0k0c1h7rbgkN;fillColor=none;strokeColor=none;" parent="1" vertex="1">
          <mxGeometry x="302" y="525" width="80" height="30" as="geometry" />
        </mxCell>
        <mxCell id="n_kdhxU8VcF-HbsjSbfM-18" value="Local Model" style="html=1;overflow=block;blockSpacing=1;whiteSpace=wrap;fontSize=10;spacing=0;strokeOpacity=100;fillOpacity=100;rounded=1;absoluteArcSize=1;arcSize=9;strokeWidth=1.5;lucidId=4k0cpnWflGrE;fillColor=none;strokeColor=none;" parent="1" vertex="1">
          <mxGeometry x="452" y="525" width="80" height="30" as="geometry" />
        </mxCell>
        <mxCell id="n_kdhxU8VcF-HbsjSbfM-19" value="Global Model" style="html=1;overflow=block;blockSpacing=1;whiteSpace=wrap;fontSize=10;spacing=0;strokeOpacity=100;fillOpacity=100;rounded=1;absoluteArcSize=1;arcSize=9;strokeWidth=1.5;lucidId=~k0c96lM0GLo;fillColor=none;strokeColor=none;" parent="1" vertex="1">
          <mxGeometry x="355" y="-15" width="80" height="30" as="geometry" />
        </mxCell>
        <mxCell id="n_kdhxU8VcF-HbsjSbfM-20" value="Hospitals" style="html=1;overflow=block;blockSpacing=1;whiteSpace=wrap;fontSize=16.7;spacing=0;strokeOpacity=100;fillOpacity=100;rounded=1;absoluteArcSize=1;arcSize=9;strokeWidth=1.5;lucidId=Vl0cjTOPYraa;fillColor=none;strokeColor=none;" parent="1" vertex="1">
          <mxGeometry x="255" y="690" width="180" height="45" as="geometry" />
        </mxCell>
        <mxCell id="n_kdhxU8VcF-HbsjSbfM-21" value="Aggregation&#xa; Server" style="html=1;overflow=block;blockSpacing=1;whiteSpace=wrap;fontSize=16.7;spacing=0;strokeOpacity=100;fillOpacity=100;rounded=1;absoluteArcSize=1;arcSize=9;strokeWidth=1.5;lucidId=Hm0cVn6AdbdA;strokeColor=none;fillColor=none;" parent="1" vertex="1">
          <mxGeometry x="187" y="30" width="196" height="45" as="geometry" />
        </mxCell>
        <mxCell id="n_kdhxU8VcF-HbsjSbfM-22" value="" style="html=1;overflow=block;blockSpacing=1;whiteSpace=wrap;fontSize=13;spacing=3.8;rounded=1;absoluteArcSize=1;arcSize=9;strokeWidth=NaN;lucidId=yn0c739pMSSu;" parent="1" vertex="1">
          <mxGeometry x="607" y="532" width="270" height="120" as="geometry" />
        </mxCell>
        <mxCell id="n_kdhxU8VcF-HbsjSbfM-23" value="" style="html=1;overflow=block;blockSpacing=1;whiteSpace=wrap;fontSize=13;spacing=3.8;rounded=1;absoluteArcSize=1;arcSize=9;strokeWidth=NaN;lucidId=yn0cnvMAfCbp;" parent="1" vertex="1">
          <mxGeometry x="772" y="-130" width="231" height="145" as="geometry" />
        </mxCell>
        <mxCell id="n_kdhxU8VcF-HbsjSbfM-24" value="" style="html=1;overflow=block;blockSpacing=1;whiteSpace=wrap;shape=image;fontSize=13;spacing=0;strokeOpacity=100;rounded=1;absoluteArcSize=1;arcSize=9;strokeWidth=0;image=https://images.lucid.app/images/6ee2b878-bf0c-4cc6-b874-f6952ba9679c/content;imageAspect=0;lucidId=yn0ch2yq6Jb~;" parent="1" vertex="1">
          <mxGeometry x="916" y="-98" width="60" height="60" as="geometry" />
        </mxCell>
        <mxCell id="n_kdhxU8VcF-HbsjSbfM-25" value="" style="html=1;overflow=block;blockSpacing=1;whiteSpace=wrap;shape=image;fontSize=13;spacing=0;strokeOpacity=100;rounded=1;absoluteArcSize=1;arcSize=9;strokeWidth=0;image=https://images.lucid.app/images/438c2a9f-1425-4897-a726-318c64c24dc9/content;imageAspect=0;lucidId=yn0ccYfQu232;" parent="1" vertex="1">
          <mxGeometry x="793" y="-121" width="106" height="106" as="geometry" />
        </mxCell>
        <mxCell id="n_kdhxU8VcF-HbsjSbfM-26" value="Global Model" style="html=1;overflow=block;blockSpacing=1;whiteSpace=wrap;fontSize=10;spacing=0;strokeOpacity=100;fillOpacity=100;rounded=1;absoluteArcSize=1;arcSize=9;strokeWidth=1.5;lucidId=yn0cWxYx~jDu;fillColor=none;strokeColor=none;" parent="1" vertex="1">
          <mxGeometry x="901" y="-30" width="80" height="30" as="geometry" />
        </mxCell>
        <mxCell id="n_kdhxU8VcF-HbsjSbfM-27" value="Traffics" style="html=1;overflow=block;blockSpacing=1;whiteSpace=wrap;fontSize=16.7;spacing=0;strokeOpacity=100;fillOpacity=100;rounded=1;absoluteArcSize=1;arcSize=9;strokeWidth=1.5;lucidId=yn0cy5Y85RG1;strokeColor=none;fillColor=none;" parent="1" vertex="1">
          <mxGeometry x="649" y="657" width="180" height="45" as="geometry" />
        </mxCell>
        <mxCell id="n_kdhxU8VcF-HbsjSbfM-28" value="Aggregation&#xa; Server" style="html=1;overflow=block;blockSpacing=1;whiteSpace=wrap;fontSize=16.7;spacing=0;strokeOpacity=100;fillOpacity=100;rounded=1;absoluteArcSize=1;arcSize=9;strokeWidth=1.5;lucidId=yn0c8CJf4Z9g;strokeColor=none;fillColor=none;" parent="1" vertex="1">
          <mxGeometry x="735" y="25" width="196" height="45" as="geometry" />
        </mxCell>
        <mxCell id="n_kdhxU8VcF-HbsjSbfM-29" value="" style="html=1;overflow=block;blockSpacing=1;whiteSpace=wrap;shape=image;fontSize=13;spacing=0;strokeOpacity=100;rounded=1;absoluteArcSize=1;arcSize=9;strokeWidth=0;image=https://images.lucid.app/images/5e367bd3-17f3-4e8a-a5dd-850cdf8dd5c8/content;imageAspect=0;lucidId=Mr0cSMd3RlLL;" parent="1" vertex="1">
          <mxGeometry x="609" y="539" width="266" height="106" as="geometry" />
        </mxCell>
        <mxCell id="n_kdhxU8VcF-HbsjSbfM-30" value="" style="html=1;overflow=block;blockSpacing=1;whiteSpace=wrap;fontSize=13;spacing=3.8;rounded=1;absoluteArcSize=1;arcSize=9;strokeWidth=NaN;lucidId=dv0cXFijIUet;" parent="1" vertex="1">
          <mxGeometry x="685" y="217" width="113" height="210" as="geometry" />
        </mxCell>
        <mxCell id="n_kdhxU8VcF-HbsjSbfM-31" value="" style="html=1;overflow=block;blockSpacing=1;whiteSpace=wrap;shape=image;fontSize=13;spacing=0;strokeOpacity=100;rounded=1;absoluteArcSize=1;arcSize=9;strokeWidth=0;image=https://images.lucid.app/images/6ee2b878-bf0c-4cc6-b874-f6952ba9679c/content;imageAspect=0;lucidId=dv0cdte8RRpS;" parent="1" vertex="1">
          <mxGeometry x="711" y="232" width="60" height="60" as="geometry" />
        </mxCell>
        <mxCell id="n_kdhxU8VcF-HbsjSbfM-32" value="Local Model" style="html=1;overflow=block;blockSpacing=1;whiteSpace=wrap;fontSize=10;spacing=0;strokeOpacity=100;fillOpacity=100;rounded=1;absoluteArcSize=1;arcSize=9;strokeWidth=1.5;lucidId=dv0cSMY8sLKg;fillColor=none;strokeColor=none;" parent="1" vertex="1">
          <mxGeometry x="702" y="292" width="80" height="30" as="geometry" />
        </mxCell>
        <mxCell id="n_kdhxU8VcF-HbsjSbfM-33" value="" style="html=1;overflow=block;blockSpacing=1;whiteSpace=wrap;shape=image;fontSize=13;spacing=0;strokeOpacity=100;rounded=1;absoluteArcSize=1;arcSize=9;strokeWidth=0;image=https://images.lucid.app/images/2069a597-414d-4270-9158-b2c62eb80928/content;imageAspect=0;lucidId=6u0cJR7z9VBF;imageBackground=none;" parent="1" vertex="1">
          <mxGeometry x="685" y="310" width="112" height="112" as="geometry" />
        </mxCell>
        <mxCell id="n_kdhxU8VcF-HbsjSbfM-34" value="Access  &#xa;Point" style="html=1;overflow=block;blockSpacing=1;whiteSpace=wrap;fontSize=16.7;spacing=0;strokeOpacity=100;fillOpacity=100;rounded=1;absoluteArcSize=1;arcSize=9;strokeWidth=1.5;lucidId=dw0crzC5P5g~;fillColor=none;strokeColor=none;" parent="1" vertex="1">
          <mxGeometry x="585" y="310" width="117" height="50" as="geometry" />
        </mxCell>
        <mxCell id="n_kdhxU8VcF-HbsjSbfM-35" value="" style="html=1;jettySize=18;whiteSpace=wrap;fontSize=13;strokeOpacity=100;strokeWidth=0.8;rounded=1;arcSize=12;edgeStyle=orthogonalEdgeStyle;startArrow=classic;endArrow=block;endFill=1;exitX=0.5;exitY=-0.006;exitPerimeter=0;entryX=0.5;entryY=1.004;entryPerimeter=0;lucidId=Ew0cICSfovb0;startFill=1;" parent="1" source="n_kdhxU8VcF-HbsjSbfM-22" target="n_kdhxU8VcF-HbsjSbfM-30" edge="1">
          <mxGeometry width="100" height="100" relative="1" as="geometry">
            <Array as="points" />
          </mxGeometry>
        </mxCell>
        <mxCell id="n_kdhxU8VcF-HbsjSbfM-36" value="" style="html=1;jettySize=18;whiteSpace=wrap;fontSize=13;strokeOpacity=100;strokeWidth=0.8;rounded=1;arcSize=12;edgeStyle=orthogonalEdgeStyle;startArrow=classic;endArrow=block;endFill=1;exitX=0.5;exitY=-0.004;exitPerimeter=0;entryX=0.5;entryY=1.005;entryPerimeter=0;lucidId=7w0cDOA0~2D4;startFill=1;" parent="1" source="n_kdhxU8VcF-HbsjSbfM-30" target="n_kdhxU8VcF-HbsjSbfM-23" edge="1">
          <mxGeometry width="100" height="100" relative="1" as="geometry">
            <Array as="points" />
          </mxGeometry>
        </mxCell>
        <mxCell id="n_kdhxU8VcF-HbsjSbfM-37" value="" style="html=1;overflow=block;blockSpacing=1;whiteSpace=wrap;fontSize=13;spacing=3.8;rounded=1;absoluteArcSize=1;arcSize=9;strokeWidth=NaN;lucidId=hx0cUC4oPDdu;" parent="1" vertex="1">
          <mxGeometry x="899" y="532" width="270" height="120" as="geometry" />
        </mxCell>
        <mxCell id="n_kdhxU8VcF-HbsjSbfM-38" value="Traffics" style="html=1;overflow=block;blockSpacing=1;whiteSpace=wrap;fontSize=16.7;spacing=0;strokeOpacity=100;fillOpacity=100;rounded=1;absoluteArcSize=1;arcSize=9;strokeWidth=1.5;lucidId=hx0co6d.r7jq;fillColor=none;strokeColor=none;" parent="1" vertex="1">
          <mxGeometry x="942" y="657" width="180" height="45" as="geometry" />
        </mxCell>
        <mxCell id="n_kdhxU8VcF-HbsjSbfM-39" value="" style="html=1;overflow=block;blockSpacing=1;whiteSpace=wrap;shape=image;fontSize=13;spacing=0;strokeOpacity=100;rounded=1;absoluteArcSize=1;arcSize=9;strokeWidth=0;image=https://images.lucid.app/images/5e367bd3-17f3-4e8a-a5dd-850cdf8dd5c8/content;imageAspect=0;lucidId=hx0cpttptLg0;" parent="1" vertex="1">
          <mxGeometry x="901" y="539" width="266" height="106" as="geometry" />
        </mxCell>
        <mxCell id="n_kdhxU8VcF-HbsjSbfM-40" value="" style="html=1;overflow=block;blockSpacing=1;whiteSpace=wrap;fontSize=13;spacing=3.8;rounded=1;absoluteArcSize=1;arcSize=9;strokeWidth=NaN;lucidId=hx0ccK9Tp_l1;" parent="1" vertex="1">
          <mxGeometry x="977" y="221" width="113" height="210" as="geometry" />
        </mxCell>
        <mxCell id="n_kdhxU8VcF-HbsjSbfM-41" value="" style="html=1;overflow=block;blockSpacing=1;whiteSpace=wrap;shape=image;fontSize=13;spacing=0;strokeOpacity=100;rounded=1;absoluteArcSize=1;arcSize=9;strokeWidth=0;image=https://images.lucid.app/images/6ee2b878-bf0c-4cc6-b874-f6952ba9679c/content;imageAspect=0;lucidId=hx0ctEQsJY8H;" parent="1" vertex="1">
          <mxGeometry x="1003" y="236" width="60" height="60" as="geometry" />
        </mxCell>
        <mxCell id="n_kdhxU8VcF-HbsjSbfM-42" value="Local Model" style="html=1;overflow=block;blockSpacing=1;whiteSpace=wrap;fontSize=10;spacing=0;strokeOpacity=100;fillOpacity=100;rounded=1;absoluteArcSize=1;arcSize=9;strokeWidth=1.5;lucidId=hx0cn1yrumVA;fillColor=none;strokeColor=none;" parent="1" vertex="1">
          <mxGeometry x="994" y="297" width="80" height="30" as="geometry" />
        </mxCell>
        <mxCell id="n_kdhxU8VcF-HbsjSbfM-43" value="" style="html=1;overflow=block;blockSpacing=1;whiteSpace=wrap;shape=image;fontSize=13;spacing=0;strokeOpacity=100;rounded=1;absoluteArcSize=1;arcSize=9;strokeWidth=0;image=https://images.lucid.app/images/2069a597-414d-4270-9158-b2c62eb80928/content;imageAspect=0;lucidId=hx0czPMrzHgw;fillColor=none;strokeColor=none;" parent="1" vertex="1">
          <mxGeometry x="977" y="315" width="112" height="112" as="geometry" />
        </mxCell>
        <mxCell id="n_kdhxU8VcF-HbsjSbfM-44" value="Access  &#xa;Point" style="html=1;overflow=block;blockSpacing=1;whiteSpace=wrap;fontSize=16.7;spacing=0;strokeOpacity=100;fillOpacity=100;rounded=1;absoluteArcSize=1;arcSize=9;strokeWidth=1.5;lucidId=hx0cH1iyyrq7;fillColor=none;strokeColor=none;" parent="1" vertex="1">
          <mxGeometry x="877" y="315" width="117" height="50" as="geometry" />
        </mxCell>
        <mxCell id="n_kdhxU8VcF-HbsjSbfM-45" value="" style="html=1;jettySize=18;whiteSpace=wrap;fontSize=13;strokeOpacity=100;strokeWidth=0.8;rounded=1;arcSize=12;edgeStyle=orthogonalEdgeStyle;startArrow=classic;endArrow=block;endFill=1;exitX=0.5;exitY=-0.006;exitPerimeter=0;entryX=0.5;entryY=1.004;entryPerimeter=0;lucidId=hx0cSZI5czvD;startFill=1;" parent="1" source="n_kdhxU8VcF-HbsjSbfM-37" target="n_kdhxU8VcF-HbsjSbfM-40" edge="1">
          <mxGeometry width="100" height="100" relative="1" as="geometry">
            <Array as="points" />
          </mxGeometry>
        </mxCell>
        <mxCell id="n_kdhxU8VcF-HbsjSbfM-46" value="" style="html=1;jettySize=18;whiteSpace=wrap;fontSize=13;strokeOpacity=100;strokeWidth=0.8;rounded=1;arcSize=12;edgeStyle=orthogonalEdgeStyle;startArrow=classic;endArrow=block;endFill=1;exitX=0.5;exitY=-0.004;exitPerimeter=0;entryX=0.5;entryY=1.005;entryPerimeter=0;lucidId=sx0cSEGi1Tlb;startFill=1;" parent="1" source="n_kdhxU8VcF-HbsjSbfM-40" target="n_kdhxU8VcF-HbsjSbfM-23" edge="1">
          <mxGeometry width="100" height="100" relative="1" as="geometry">
            <Array as="points" />
          </mxGeometry>
        </mxCell>
        <mxCell id="n_kdhxU8VcF-HbsjSbfM-47" value="" style="html=1;overflow=block;blockSpacing=1;whiteSpace=wrap;fontSize=13;spacing=3.8;rounded=1;absoluteArcSize=1;arcSize=9;strokeWidth=NaN;lucidId=oa0c9_Mlfg03;" parent="1" vertex="1">
          <mxGeometry x="1250" y="440" width="113" height="210" as="geometry" />
        </mxCell>
        <mxCell id="n_kdhxU8VcF-HbsjSbfM-48" value="" style="html=1;overflow=block;blockSpacing=1;whiteSpace=wrap;shape=image;fontSize=13;spacing=0;strokeOpacity=100;rounded=1;absoluteArcSize=1;arcSize=9;strokeWidth=0;image=https://images.lucid.app/images/6ee2b878-bf0c-4cc6-b874-f6952ba9679c/content;imageAspect=0;lucidId=3~ZcfYs1wXwu;" parent="1" vertex="1">
          <mxGeometry x="1275" y="455" width="60" height="60" as="geometry" />
        </mxCell>
        <mxCell id="n_kdhxU8VcF-HbsjSbfM-49" value="" style="html=1;overflow=block;blockSpacing=1;whiteSpace=wrap;shape=image;fontSize=13;spacing=0;strokeOpacity=100;rounded=1;absoluteArcSize=1;arcSize=9;strokeWidth=0;image=https://cdn-icons-png.flaticon.com/512/1548/1548050.png;imageAspect=0;lucidId=nd0crdiI~nZ~;" parent="1" vertex="1">
          <mxGeometry x="1262" y="537" width="85" height="85" as="geometry" />
        </mxCell>
        <mxCell id="n_kdhxU8VcF-HbsjSbfM-50" value="" style="html=1;overflow=block;blockSpacing=1;whiteSpace=wrap;fontSize=13;spacing=3.8;rounded=1;absoluteArcSize=1;arcSize=9;strokeWidth=NaN;lucidId=Ue0cFCNcHWdN;" parent="1" vertex="1">
          <mxGeometry x="1400" y="440" width="113" height="210" as="geometry" />
        </mxCell>
        <mxCell id="n_kdhxU8VcF-HbsjSbfM-51" value="" style="html=1;overflow=block;blockSpacing=1;whiteSpace=wrap;shape=image;fontSize=13;spacing=0;strokeOpacity=100;rounded=1;absoluteArcSize=1;arcSize=9;strokeWidth=0;image=https://images.lucid.app/images/6ee2b878-bf0c-4cc6-b874-f6952ba9679c/content;imageAspect=0;lucidId=Ue0c8D6FLSGJ;" parent="1" vertex="1">
          <mxGeometry x="1426" y="455" width="60" height="60" as="geometry" />
        </mxCell>
        <mxCell id="n_kdhxU8VcF-HbsjSbfM-52" value="" style="html=1;overflow=block;blockSpacing=1;whiteSpace=wrap;shape=image;fontSize=13;spacing=0;strokeOpacity=100;rounded=1;absoluteArcSize=1;arcSize=9;strokeWidth=0;image=https://cdn-icons-png.flaticon.com/512/1548/1548050.png;imageAspect=0;lucidId=Ue0cAtFzDeq4;" parent="1" vertex="1">
          <mxGeometry x="1412" y="537" width="85" height="85" as="geometry" />
        </mxCell>
        <mxCell id="n_kdhxU8VcF-HbsjSbfM-53" value="" style="html=1;overflow=block;blockSpacing=1;whiteSpace=wrap;fontSize=13;spacing=3.8;rounded=1;absoluteArcSize=1;arcSize=9;strokeWidth=NaN;lucidId=Ye0cGU86-.UA;" parent="1" vertex="1">
          <mxGeometry x="1550" y="440" width="113" height="210" as="geometry" />
        </mxCell>
        <mxCell id="n_kdhxU8VcF-HbsjSbfM-54" value="" style="html=1;overflow=block;blockSpacing=1;whiteSpace=wrap;shape=image;fontSize=13;spacing=0;strokeOpacity=100;rounded=1;absoluteArcSize=1;arcSize=9;strokeWidth=0;image=https://images.lucid.app/images/6ee2b878-bf0c-4cc6-b874-f6952ba9679c/content;imageAspect=0;lucidId=Ye0co.i65bgH;" parent="1" vertex="1">
          <mxGeometry x="1576" y="455" width="60" height="60" as="geometry" />
        </mxCell>
        <mxCell id="n_kdhxU8VcF-HbsjSbfM-55" value="" style="html=1;overflow=block;blockSpacing=1;whiteSpace=wrap;shape=image;fontSize=13;spacing=0;strokeOpacity=100;rounded=1;absoluteArcSize=1;arcSize=9;strokeWidth=0;image=https://cdn-icons-png.flaticon.com/512/1548/1548050.png;imageAspect=0;lucidId=Ye0cFIR5wIGK;" parent="1" vertex="1">
          <mxGeometry x="1562" y="537" width="85" height="85" as="geometry" />
        </mxCell>
        <mxCell id="p1MtR6n1nj-J7KXdIe0o-19" style="edgeStyle=orthogonalEdgeStyle;rounded=0;orthogonalLoop=1;jettySize=auto;html=1;exitX=0.5;exitY=0;exitDx=0;exitDy=0;entryX=1;entryY=0.5;entryDx=0;entryDy=0;" parent="1" source="n_kdhxU8VcF-HbsjSbfM-56" target="p1MtR6n1nj-J7KXdIe0o-5" edge="1">
          <mxGeometry relative="1" as="geometry" />
        </mxCell>
        <mxCell id="n_kdhxU8VcF-HbsjSbfM-56" value="" style="html=1;overflow=block;blockSpacing=1;whiteSpace=wrap;fontSize=13;spacing=3.8;rounded=1;absoluteArcSize=1;arcSize=9;strokeWidth=NaN;lucidId=qf0c_eEb6ykf;" parent="1" vertex="1">
          <mxGeometry x="1339" y="-130" width="231" height="145" as="geometry" />
        </mxCell>
        <mxCell id="n_kdhxU8VcF-HbsjSbfM-57" value="" style="html=1;overflow=block;blockSpacing=1;whiteSpace=wrap;shape=image;fontSize=13;spacing=0;strokeOpacity=100;rounded=1;absoluteArcSize=1;arcSize=9;strokeWidth=0;image=https://images.lucid.app/images/6ee2b878-bf0c-4cc6-b874-f6952ba9679c/content;imageAspect=0;lucidId=qf0c7~HlXfNC;" parent="1" vertex="1">
          <mxGeometry x="1480" y="-88" width="60" height="60" as="geometry" />
        </mxCell>
        <mxCell id="n_kdhxU8VcF-HbsjSbfM-58" value="" style="html=1;overflow=block;blockSpacing=1;whiteSpace=wrap;shape=image;fontSize=13;spacing=0;strokeOpacity=100;rounded=1;absoluteArcSize=1;arcSize=9;strokeWidth=0;image=https://images.lucid.app/images/438c2a9f-1425-4897-a726-318c64c24dc9/content;imageAspect=0;lucidId=bj0c9Xj_4SpL;" parent="1" vertex="1">
          <mxGeometry x="1357" y="-111" width="106" height="106" as="geometry" />
        </mxCell>
        <mxCell id="n_kdhxU8VcF-HbsjSbfM-59" value="" style="html=1;jettySize=18;whiteSpace=wrap;fontSize=13;strokeOpacity=100;strokeWidth=0.8;rounded=1;arcSize=12;edgeStyle=orthogonalEdgeStyle;startArrow=classic;endArrow=block;endFill=1;exitX=0.5;exitY=-0.004;exitPerimeter=0;entryX=0.5;entryY=1.005;entryPerimeter=0;lucidId=Lj0c53ItbWVD;startFill=1;" parent="1" source="n_kdhxU8VcF-HbsjSbfM-47" target="n_kdhxU8VcF-HbsjSbfM-56" edge="1">
          <mxGeometry width="100" height="100" relative="1" as="geometry">
            <Array as="points" />
          </mxGeometry>
        </mxCell>
        <mxCell id="n_kdhxU8VcF-HbsjSbfM-60" value="" style="html=1;jettySize=18;whiteSpace=wrap;fontSize=13;strokeOpacity=100;strokeWidth=0.8;rounded=1;arcSize=12;edgeStyle=orthogonalEdgeStyle;startArrow=classic;endArrow=block;endFill=1;exitX=0.5;exitY=-0.004;exitPerimeter=0;entryX=0.5;entryY=1.005;entryPerimeter=0;lucidId=Oj0cYNBlcdyR;startFill=1;" parent="1" source="n_kdhxU8VcF-HbsjSbfM-50" target="n_kdhxU8VcF-HbsjSbfM-56" edge="1">
          <mxGeometry width="100" height="100" relative="1" as="geometry">
            <Array as="points" />
          </mxGeometry>
        </mxCell>
        <mxCell id="n_kdhxU8VcF-HbsjSbfM-61" value="" style="html=1;jettySize=18;whiteSpace=wrap;fontSize=13;strokeOpacity=100;strokeWidth=0.8;rounded=1;arcSize=12;edgeStyle=orthogonalEdgeStyle;startArrow=classic;endArrow=block;endFill=1;exitX=0.5;exitY=-0.004;exitPerimeter=0;entryX=0.5;entryY=1.005;entryPerimeter=0;lucidId=Xj0c3KFsN1RN;startFill=1;" parent="1" source="n_kdhxU8VcF-HbsjSbfM-53" target="n_kdhxU8VcF-HbsjSbfM-56" edge="1">
          <mxGeometry width="100" height="100" relative="1" as="geometry">
            <Array as="points" />
          </mxGeometry>
        </mxCell>
        <mxCell id="n_kdhxU8VcF-HbsjSbfM-62" value="Local Model" style="html=1;overflow=block;blockSpacing=1;whiteSpace=wrap;fontSize=10;spacing=0;strokeOpacity=100;fillOpacity=100;rounded=1;absoluteArcSize=1;arcSize=9;strokeWidth=1.5;lucidId=tk0cPmUiDAOT;fillColor=none;strokeColor=none;" parent="1" vertex="1">
          <mxGeometry x="1267" y="515" width="80" height="30" as="geometry" />
        </mxCell>
        <mxCell id="n_kdhxU8VcF-HbsjSbfM-63" value="Local Model" style="html=1;overflow=block;blockSpacing=1;whiteSpace=wrap;fontSize=10;spacing=0;strokeOpacity=100;fillOpacity=100;rounded=1;absoluteArcSize=1;arcSize=9;strokeWidth=1.5;lucidId=0k0c1h7rbgkN;fillColor=none;strokeColor=none;" parent="1" vertex="1">
          <mxGeometry x="1417" y="515" width="80" height="30" as="geometry" />
        </mxCell>
        <mxCell id="n_kdhxU8VcF-HbsjSbfM-64" value="Local Model" style="html=1;overflow=block;blockSpacing=1;whiteSpace=wrap;fontSize=10;spacing=0;strokeOpacity=100;fillOpacity=100;rounded=1;absoluteArcSize=1;arcSize=9;strokeWidth=1.5;lucidId=4k0cpnWflGrE;fillColor=none;strokeColor=none;" parent="1" vertex="1">
          <mxGeometry x="1567" y="515" width="80" height="30" as="geometry" />
        </mxCell>
        <mxCell id="n_kdhxU8VcF-HbsjSbfM-65" value="Global Model" style="html=1;overflow=block;blockSpacing=1;whiteSpace=wrap;fontSize=10;spacing=0;strokeOpacity=100;fillOpacity=100;rounded=1;absoluteArcSize=1;arcSize=9;strokeWidth=1.5;lucidId=~k0c96lM0GLo;fillColor=none;strokeColor=none;" parent="1" vertex="1">
          <mxGeometry x="1470" y="-25" width="80" height="30" as="geometry" />
        </mxCell>
        <mxCell id="n_kdhxU8VcF-HbsjSbfM-66" value="Energy Meters" style="html=1;overflow=block;blockSpacing=1;whiteSpace=wrap;fontSize=16.7;spacing=0;strokeOpacity=100;fillOpacity=100;rounded=1;absoluteArcSize=1;arcSize=9;strokeWidth=1.5;lucidId=Vl0cjTOPYraa;fillColor=none;strokeColor=none;" parent="1" vertex="1">
          <mxGeometry x="1370" y="680" width="180" height="45" as="geometry" />
        </mxCell>
        <mxCell id="n_kdhxU8VcF-HbsjSbfM-67" value="Aggregation&#xa; Server" style="html=1;overflow=block;blockSpacing=1;whiteSpace=wrap;fontSize=16.7;spacing=0;strokeOpacity=100;fillOpacity=100;rounded=1;absoluteArcSize=1;arcSize=9;strokeWidth=1.5;lucidId=Hm0cVn6AdbdA;strokeColor=none;fillColor=none;" parent="1" vertex="1">
          <mxGeometry x="1302" y="20" width="196" height="45" as="geometry" />
        </mxCell>
        <mxCell id="p1MtR6n1nj-J7KXdIe0o-5" value="" style="html=1;overflow=block;blockSpacing=1;whiteSpace=wrap;fontSize=13;spacing=3.8;rounded=1;absoluteArcSize=1;arcSize=9;strokeWidth=NaN;lucidId=qf0c_eEb6ykf;" parent="1" vertex="1">
          <mxGeometry x="750" y="-420" width="231" height="145" as="geometry" />
        </mxCell>
        <mxCell id="p1MtR6n1nj-J7KXdIe0o-15" value="" style="shape=image;verticalLabelPosition=bottom;labelBackgroundColor=default;verticalAlign=top;aspect=fixed;imageAspect=0;image=https://static.vecteezy.com/system/resources/previews/024/091/981/non_2x/server-towers-devices-free-png.png;" parent="1" vertex="1">
          <mxGeometry x="850" y="-399.5" width="104" height="104" as="geometry" />
        </mxCell>
        <mxCell id="p1MtR6n1nj-J7KXdIe0o-17" style="edgeStyle=orthogonalEdgeStyle;rounded=0;orthogonalLoop=1;jettySize=auto;html=1;entryX=0.544;entryY=0.986;entryDx=0;entryDy=0;entryPerimeter=0;" parent="1" source="n_kdhxU8VcF-HbsjSbfM-23" target="p1MtR6n1nj-J7KXdIe0o-5" edge="1">
          <mxGeometry relative="1" as="geometry" />
        </mxCell>
        <mxCell id="p1MtR6n1nj-J7KXdIe0o-20" value="Central Server" style="text;html=1;align=center;verticalAlign=middle;whiteSpace=wrap;rounded=0;" parent="1" vertex="1">
          <mxGeometry x="782" y="-350" width="60" height="30" as="geometry" />
        </mxCell>
      </root>
    </mxGraphModel>
  </diagram>
</mxfile>
